<svg width="32" height="33" viewBox="0 0 32 33" fill="none" xmlns="http://www.w3.org/2000/svg">
  <rect y="0.924988" width="32" height="32" rx="4" fill="#2C2C2C" />
  <path d="M14.3077 22.0025C11.2308 23.0013 11.2308 20.338 10 20.0051M18.6154 24V21.4233C18.6385 21.1058 18.5988 20.7866 18.4991 20.487C18.3993 20.1874 18.2418 19.9142 18.0369 19.6855C19.9692 19.4525 22 18.6601 22 15.0248C21.9998 14.0952 21.6693 13.2012 21.0769 12.528C21.3575 11.7147 21.3376 10.8157 21.0215 10.0178C21.0215 10.0178 20.2954 9.7848 18.6154 11.0032C17.2049 10.5897 15.7181 10.5897 14.3077 11.0032C12.6277 9.7848 11.9015 10.0178 11.9015 10.0178C11.5855 10.8157 11.5656 11.7147 11.8462 12.528C11.2493 13.2062 10.9185 14.1083 10.9231 15.0448C10.9231 18.6535 12.9538 19.4458 14.8862 19.7055C14.6837 19.9318 14.5275 20.2018 14.4279 20.4977C14.3282 20.7937 14.2873 21.1091 14.3077 21.4233V24" stroke="white" stroke-width="1.16667" stroke-linecap="round" stroke-linejoin="round" />
</svg>
  